<?xml version="1.0" standalone="no"?>
<!DOCTYPE svg PUBLIC "-//W3C//DTD SVG 20010904//EN"
 "http://www.w3.org/TR/2001/REC-SVG-20010904/DTD/svg10.dtd">
<svg version="1.0" xmlns="http://www.w3.org/2000/svg"
 width="512.000000pt" height="512.000000pt" viewBox="0 0 512.000000 512.000000"
 preserveAspectRatio="xMidYMid meet">

<g transform="translate(0.000000,512.000000) scale(0.100000,-0.100000)"
fill="#000000" stroke="none">
<path d="M2384 5110 c-1133 -83 -2072 -890 -2318 -1993 -80 -357 -80 -756 0
-1117 50 -224 151 -489 259 -681 407 -719 1099 -1187 1915 -1295 159 -21 508
-24 640 -6 620 87 1158 367 1571 819 622 679 829 1645 539 2523 -257 781 -869
1388 -1651 1638 -307 98 -631 136 -955 112z m754 -1030 c18 -11 41 -34 52 -52
19 -31 20 -51 20 -414 0 -303 3 -384 13 -392 9 -8 140 -12 399 -14 372 -3 388
-4 414 -24 15 -11 37 -33 48 -48 21 -27 21 -38 21 -569 0 -527 -1 -543 -20
-577 -12 -19 -36 -43 -55 -55 -33 -19 -54 -20 -417 -23 -291 -2 -384 -6 -392
-16 -7 -8 -11 -149 -13 -398 -3 -373 -4 -388 -24 -415 -47 -64 -34 -63 -619
-63 -591 0 -575 -2 -622 69 -23 34 -23 36 -23 411 0 285 -3 380 -12 393 -12
15 -54 17 -400 19 -372 3 -388 4 -414 24 -15 11 -37 33 -48 48 -21 27 -21 40
-24 563 -3 521 -2 536 18 577 13 27 34 50 59 64 38 22 47 22 420 22 366 0 381
1 391 19 6 13 10 155 10 393 0 315 2 378 15 402 15 29 43 54 75 68 8 4 258 7
555 7 522 1 541 0 573 -19z"/>
</g>
</svg>
